<svg id="SvgjsSvg1001" width="256" height="256" xmlns="http://www.w3.org/2000/svg" version="1.1" xmlns:xlink="http://www.w3.org/1999/xlink" xmlns:svgjs="http://svgjs.com/svgjs"><defs id="SvgjsDefs1002"></defs><g id="SvgjsG1008"><svg xmlns="http://www.w3.org/2000/svg" viewBox="0 0 24 24" width="256" height="256"><path d="M17,2H7A5,5,0,0,0,2,7V17a5,5,0,0,0,5,5H17a5,5,0,0,0,5-5V7A5,5,0,0,0,17,2Zm2.22,7.58v4.37a6.06,6.06,0,1,1-12.11,0V11.31A4.11,4.11,0,0,1,4,7.33V5A1,1,0,0,1,5,4h.78A1,1,0,0,1,6,6V7.33a2.11,2.11,0,0,0,4.22,0V6a1,1,0,0,1,.22-2h.78a1,1,0,0,1,1,1V7.33a4.11,4.11,0,0,1-3.11,4v2.64a4.06,4.06,0,1,0,8.11,0V9.58a1.78,1.78,0,1,1,2,0Z" data-name="16" fill="#586BCA" class="color000 svgShape"></path></svg></g></svg>